<svg id="svg" version="1.1" xmlns="http://www.w3.org/2000/svg" xmlns:xlink="http://www.w3.org/1999/xlink" width="400" height="400" viewBox="0, 0, 400,400"><g id="svgg"><path id="path0" d="M294.530 222.417 C 294.439 223.012,294.058 226.050,293.685 229.167 C 292.055 242.758,289.984 259.587,289.817 260.583 L 289.636 261.667 292.152 261.667 C 294.125 261.667,294.667 261.563,294.667 261.184 C 294.667 260.918,294.882 259.006,295.146 256.934 C 295.409 254.862,295.728 252.146,295.853 250.899 L 296.081 248.631 297.254 248.732 C 298.391 248.830,298.550 249.032,302.413 255.250 L 306.398 261.667 309.052 261.667 C 310.512 261.667,311.639 261.554,311.557 261.417 C 309.204 257.482,304.296 249.401,303.486 248.129 L 302.400 246.425 307.056 241.796 C 309.617 239.250,312.316 236.454,313.054 235.583 L 314.395 234.000 311.792 234.000 L 309.189 234.000 303.678 239.673 C 299.583 243.887,297.964 245.344,297.378 245.339 C 296.465 245.332,296.364 246.972,298.186 232.201 C 299.684 220.061,299.821 221.333,297.015 221.333 L 294.697 221.333 294.530 222.417 M101.333 222.500 C 90.912 224.601,84.560 232.980,84.527 244.667 C 84.492 257.382,92.422 264.041,105.000 261.860 C 108.314 261.285,114.308 258.755,114.357 257.909 C 114.370 257.684,114.789 254.275,115.286 250.333 L 116.192 243.167 110.715 243.075 C 104.454 242.970,104.864 242.829,104.847 245.098 L 104.833 246.833 107.917 246.929 C 111.400 247.037,111.204 246.811,110.681 250.139 C 110.506 251.254,110.272 253.015,110.161 254.053 L 109.960 255.939 108.230 256.618 C 97.088 260.995,89.086 255.239,89.761 243.333 C 90.517 230.006,101.929 222.541,112.137 228.697 C 114.850 230.334,115.351 230.328,116.683 228.645 L 117.756 227.291 116.628 226.121 C 113.540 222.920,106.967 221.363,101.333 222.500 M204.333 222.375 C 198.221 223.387,194.239 228.016,194.190 234.167 C 194.148 239.472,195.612 241.141,202.670 243.835 C 208.708 246.139,210.072 248.034,208.801 252.356 C 207.038 258.349,200.029 259.801,194.607 255.296 C 192.634 253.657,192.313 253.672,190.833 255.479 C 189.395 257.234,189.509 257.673,191.872 259.478 C 201.536 266.856,216.248 258.569,214.009 247.008 C 213.295 243.322,211.775 241.954,205.469 239.321 C 200.094 237.076,199.166 236.157,199.167 233.077 C 199.170 227.015,205.750 224.357,211.301 228.176 C 213.471 229.668,214.031 229.639,215.186 227.973 C 216.284 226.388,216.181 226.071,214.030 224.420 C 211.748 222.667,207.708 221.816,204.333 222.375 M224.994 225.507 C 224.763 225.786,224.106 227.923,223.535 230.255 L 222.497 234.496 220.501 234.775 C 218.308 235.081,218.013 235.331,218.005 236.881 C 217.999 238.073,218.422 238.333,220.361 238.333 C 221.979 238.333,221.961 237.985,220.806 246.874 C 219.339 258.173,219.570 259.997,222.674 261.608 C 224.978 262.802,228.938 262.200,231.442 260.274 C 232.021 259.828,232.023 259.738,231.489 258.403 C 230.839 256.778,230.889 256.792,228.889 257.676 C 224.473 259.630,224.157 258.330,225.853 245.191 C 226.300 241.721,226.667 238.758,226.667 238.608 C 226.667 238.457,228.233 238.333,230.147 238.333 C 233.978 238.333,233.917 238.366,234.215 236.194 L 234.424 234.667 230.879 234.667 L 227.333 234.667 227.333 233.395 C 227.333 232.695,227.471 231.307,227.639 230.311 C 227.807 229.315,228.025 227.713,228.123 226.750 L 228.302 225.000 226.858 225.000 C 225.973 225.000,225.252 225.196,224.994 225.507 M149.128 233.962 C 137.615 236.946,133.543 256.338,143.420 261.136 C 152.499 265.546,162.809 256.456,162.271 244.515 C 161.924 236.823,156.108 232.153,149.128 233.962 M177.582 234.007 C 163.468 237.573,162.280 262.333,176.223 262.333 C 179.934 262.333,187.000 258.753,187.000 256.873 C 187.000 255.233,184.699 254.632,183.215 255.885 C 177.271 260.904,171.348 258.216,171.348 250.500 C 171.347 241.215,178.305 234.877,184.148 238.842 C 185.742 239.924,186.426 239.882,187.470 238.641 C 188.594 237.306,188.581 237.241,186.917 235.921 C 184.450 233.963,180.755 233.206,177.582 234.007 M247.310 234.103 C 235.664 237.394,232.250 256.759,242.500 261.386 C 248.370 264.036,255.756 260.541,258.987 253.584 C 264.362 242.011,257.838 231.128,247.310 234.103 M275.667 234.176 C 267.459 236.454,262.374 248.374,266.001 256.835 C 268.721 263.181,277.788 264.158,283.668 258.738 L 285.734 256.833 285.009 255.917 C 284.086 254.749,283.237 254.758,281.715 255.954 C 274.575 261.564,267.939 256.579,270.129 247.250 C 271.952 239.485,277.768 235.552,282.651 238.784 C 284.404 239.944,285.078 239.898,286.107 238.548 L 286.960 237.430 285.730 236.252 C 283.261 233.887,279.502 233.112,275.667 234.176 M122.530 241.583 C 122.027 245.754,121.328 251.567,120.977 254.500 C 120.626 257.433,120.289 260.246,120.227 260.750 L 120.115 261.667 122.558 261.667 C 124.107 261.667,125.000 261.533,125.000 261.301 C 125.000 248.487,129.582 238.345,135.182 238.762 L 137.198 238.912 137.605 236.767 C 138.113 234.090,138.051 234.000,135.712 234.000 C 132.701 234.000,130.512 235.664,128.132 239.762 L 127.316 241.167 127.400 237.900 C 127.496 234.162,127.403 234.013,124.972 234.005 L 123.445 234.000 122.530 241.583 M154.913 238.550 C 159.170 241.723,157.646 253.289,152.483 256.997 C 148.057 260.176,143.378 257.654,142.807 251.781 C 141.923 242.700,149.448 234.477,154.913 238.550 M253.005 238.283 C 255.486 239.600,256.613 243.990,255.684 248.716 C 253.203 261.325,240.386 261.730,241.448 249.167 C 242.156 240.782,247.764 235.501,253.005 238.283 " stroke="none" fill="#f7f7f7" fill-rule="evenodd"></path><path id="path1" d="M187.167 81.697 C 165.713 83.641,147.000 103.292,147.000 123.877 L 147.000 126.000 132.656 126.000 C 117.073 126.000,117.019 126.006,115.271 127.876 C 113.619 129.643,113.667 128.264,113.667 174.020 L 113.667 217.329 86.152 217.415 L 58.637 217.500 67.178 229.959 C 71.876 236.811,75.793 242.609,75.883 242.843 C 75.973 243.077,72.136 248.977,67.357 255.953 C 62.577 262.930,58.667 268.720,58.667 268.819 C 58.667 268.919,71.042 269.000,86.167 269.000 L 113.667 269.000 113.672 285.417 C 113.677 303.497,113.731 304.095,115.733 308.200 C 118.075 313.004,122.625 316.583,128.203 318.009 C 131.728 318.911,262.780 319.054,267.025 318.161 C 273.976 316.699,279.707 311.251,281.476 304.425 C 281.919 302.718,282.000 299.806,282.000 285.702 L 282.000 269.000 311.667 269.000 C 327.983 269.000,341.333 268.919,341.333 268.819 C 341.333 268.720,337.423 262.930,332.643 255.953 C 327.864 248.977,324.027 243.077,324.117 242.843 C 324.207 242.609,328.124 236.811,332.822 229.959 L 341.363 217.500 311.685 217.415 L 282.007 217.330 281.920 173.336 L 281.833 129.342 280.246 127.754 L 278.659 126.167 263.852 126.070 L 249.045 125.974 248.845 124.070 C 248.736 123.023,248.561 121.342,248.457 120.333 C 246.895 105.144,234.313 89.126,220.163 84.313 C 212.640 81.755,198.714 80.650,187.167 81.697 M212.058 93.924 C 226.489 97.887,237.328 111.107,237.333 124.750 L 237.333 126.000 197.833 126.000 C 176.108 126.000,158.335 125.888,158.336 125.750 C 158.482 112.431,167.773 99.408,180.332 94.919 C 185.965 92.905,206.056 92.275,212.058 93.924 M270.667 177.333 L 270.667 217.333 198.000 217.333 L 125.333 217.333 125.333 177.333 L 125.333 137.333 198.000 137.333 L 270.667 137.333 270.667 177.333 M299.548 222.750 C 299.434 223.529,299.116 226.117,298.841 228.500 C 298.566 230.883,298.192 233.958,298.008 235.333 C 297.825 236.708,297.515 239.324,297.319 241.145 C 297.123 242.967,296.887 244.580,296.795 244.729 C 296.703 244.878,296.979 245.000,297.409 245.000 C 297.977 245.000,299.687 243.495,303.657 239.500 L 309.122 234.000 311.970 234.000 L 314.819 234.000 312.143 236.750 C 310.671 238.262,307.953 241.053,306.103 242.950 L 302.739 246.400 304.150 248.784 C 304.927 250.094,307.010 253.534,308.781 256.427 C 310.551 259.320,312.000 261.757,312.000 261.843 C 312.000 262.261,306.684 261.970,306.242 261.527 C 305.982 261.268,304.090 258.344,302.037 255.030 C 298.473 249.277,297.284 247.938,296.466 248.756 C 296.318 248.904,295.728 253.512,295.048 259.833 L 294.833 261.833 292.250 261.931 L 289.667 262.028 289.667 260.791 C 289.667 260.111,289.811 258.642,289.987 257.527 C 290.163 256.412,290.548 253.400,290.843 250.833 C 291.138 248.267,291.602 244.442,291.873 242.333 C 292.144 240.225,292.509 237.300,292.683 235.833 C 292.989 233.263,293.713 227.229,294.194 223.250 L 294.425 221.333 297.090 221.333 L 299.754 221.333 299.548 222.750 M109.370 222.340 C 111.804 222.802,114.858 224.294,116.645 225.895 L 118.123 227.219 116.998 228.619 C 115.427 230.574,114.821 230.634,112.409 229.075 C 103.634 223.404,92.589 228.813,90.340 239.881 C 87.833 252.221,95.247 260.426,106.000 257.213 C 109.459 256.179,109.865 255.759,110.120 252.953 C 110.243 251.604,110.435 249.787,110.548 248.917 L 110.753 247.333 108.107 247.333 C 104.565 247.333,104.171 247.035,104.551 244.645 L 104.839 242.833 110.586 242.742 L 116.333 242.651 116.333 243.598 C 116.333 244.118,116.195 245.359,116.027 246.355 C 115.858 247.352,115.466 250.342,115.156 253.000 C 114.479 258.798,114.430 258.867,109.663 260.806 C 94.761 266.866,82.118 257.061,84.449 241.250 C 86.419 227.893,96.863 219.968,109.370 222.340 M211.834 222.966 C 213.604 223.749,216.333 225.835,216.333 226.405 C 216.333 227.007,213.989 229.667,213.458 229.667 C 213.184 229.667,212.272 229.142,211.432 228.500 C 206.385 224.646,199.333 227.256,199.333 232.978 C 199.333 236.038,200.300 236.984,205.667 239.178 C 213.772 242.490,215.831 246.082,213.657 253.118 C 210.676 262.772,195.616 265.886,190.007 258.009 L 189.345 257.080 190.521 255.540 C 192.033 253.560,192.788 253.548,195.140 255.464 C 200.840 260.107,208.474 257.289,208.917 250.378 C 209.113 247.304,207.343 245.544,202.500 244.000 C 196.101 241.959,193.851 239.256,194.053 233.855 C 194.384 225.038,203.667 219.353,211.834 222.966 M228.333 225.809 C 228.333 226.876,227.886 230.777,227.481 233.250 L 227.303 234.333 231.024 234.333 C 234.720 234.333,234.743 234.338,234.543 235.083 C 234.433 235.496,234.340 236.391,234.338 237.072 L 234.333 238.311 230.583 238.406 L 226.833 238.500 226.619 240.500 C 226.379 242.734,225.813 247.299,225.336 250.833 C 224.432 257.541,225.453 259.281,229.134 257.308 C 230.626 256.508,230.964 256.689,231.817 258.737 L 232.331 259.973 230.916 260.799 C 228.734 262.073,227.802 262.333,225.434 262.333 C 220.156 262.333,218.940 259.551,220.161 250.261 C 220.433 248.193,220.816 245.150,221.014 243.500 C 221.211 241.850,221.446 240.012,221.535 239.417 L 221.697 238.333 219.884 238.333 C 217.833 238.333,217.514 237.984,217.864 236.119 C 218.085 234.943,218.189 234.887,220.791 234.536 C 222.444 234.313,222.222 234.704,223.392 229.949 C 224.576 225.142,224.890 224.667,226.885 224.667 C 228.312 224.667,228.333 224.683,228.333 225.809 M156.667 234.456 C 161.506 236.694,163.888 243.982,161.916 250.520 C 157.282 265.883,138.607 266.631,137.753 251.488 C 137.079 239.542,147.457 230.197,156.667 234.456 M255.000 234.390 C 261.751 237.283,263.226 248.095,257.947 256.000 C 252.168 264.655,240.171 264.452,237.080 255.646 C 232.810 243.481,244.329 229.818,255.000 234.390 M126.965 234.213 C 127.700 234.728,127.737 234.921,127.599 237.546 C 127.428 240.804,127.377 240.720,128.435 238.917 C 130.288 235.761,133.176 233.667,135.675 233.667 C 138.140 233.667,138.331 233.940,137.804 236.707 C 137.259 239.565,137.428 239.360,135.907 239.017 C 133.505 238.475,131.293 239.469,129.677 241.818 C 127.324 245.238,126.692 248.001,125.215 261.333 C 125.172 261.721,124.571 261.855,122.530 261.932 L 119.901 262.030 120.121 259.932 C 120.241 258.778,120.494 256.633,120.682 255.167 C 120.870 253.700,121.238 250.625,121.499 248.333 C 121.760 246.042,122.132 242.892,122.325 241.333 C 122.518 239.775,122.761 237.600,122.866 236.500 C 122.971 235.400,123.114 234.313,123.184 234.083 C 123.372 233.473,126.040 233.565,126.965 234.213 M184.722 234.286 C 185.517 234.627,186.722 235.477,187.400 236.176 L 188.633 237.446 187.622 238.723 C 186.471 240.176,185.804 240.300,184.528 239.295 C 178.845 234.826,171.665 240.932,171.542 250.339 C 171.441 257.992,177.061 260.597,183.129 255.710 C 184.768 254.391,185.404 254.398,186.483 255.750 L 187.348 256.833 185.411 258.667 C 179.023 264.713,169.277 263.284,166.870 255.948 C 162.824 243.615,174.223 229.783,184.722 234.286 M283.133 234.174 C 284.420 234.712,287.000 236.860,287.000 237.394 C 287.000 239.301,284.489 240.404,282.894 239.197 C 276.954 234.704,269.407 242.055,270.081 251.678 C 270.531 258.088,276.036 260.156,281.388 255.926 C 283.340 254.383,284.283 254.427,285.276 256.111 L 285.833 257.055 284.000 258.750 C 280.391 262.087,273.972 263.396,270.263 261.551 C 260.932 256.911,263.874 238.506,274.617 234.304 C 276.619 233.521,281.396 233.448,283.133 234.174 M148.759 238.516 C 142.876 241.448,140.835 253.951,145.696 257.279 C 150.849 260.807,157.037 254.352,157.096 245.386 C 157.138 238.940,153.660 236.074,148.759 238.516 M248.167 238.069 C 242.203 240.153,239.231 252.584,243.678 256.845 C 246.660 259.701,251.955 257.608,254.234 252.672 C 258.081 244.343,254.547 235.838,248.167 238.069 M134.564 270.349 C 126.050 280.296,131.164 297.688,143.755 301.606 C 145.891 302.271,244.582 302.654,249.500 302.016 C 262.842 300.287,269.917 283.217,262.075 271.672 C 261.392 270.667,260.713 269.654,260.567 269.422 C 260.356 269.088,261.387 269.000,265.498 269.000 L 270.697 269.000 270.598 285.108 L 270.500 301.215 269.497 303.175 C 268.654 304.823,268.211 305.283,266.709 306.067 L 264.924 307.000 198.171 307.000 C 125.002 307.000,129.741 307.129,127.546 305.070 C 125.322 302.984,125.349 303.227,125.341 285.250 L 125.333 269.000 130.526 269.000 L 135.719 269.000 134.564 270.349 M250.211 275.640 C 254.695 278.373,254.892 286.674,250.544 289.583 L 248.925 290.667 198.118 290.667 C 155.514 290.667,147.133 290.592,146.204 290.204 C 141.101 288.072,140.619 278.589,145.463 275.635 C 147.093 274.641,248.581 274.645,250.211 275.640 " stroke="none" fill="#040404" fill-rule="evenodd"></path><path id="path2" d="M226.088 224.906 C 226.595 224.982,227.345 224.980,227.755 224.901 C 228.165 224.822,227.750 224.760,226.833 224.762 C 225.917 224.765,225.581 224.829,226.088 224.906 M103.917 226.908 C 104.513 226.982,105.487 226.982,106.083 226.908 C 106.679 226.834,106.192 226.773,105.000 226.773 C 103.808 226.773,103.321 226.834,103.917 226.908 M94.812 230.750 L 93.833 231.833 94.917 230.854 C 95.926 229.942,96.153 229.667,95.896 229.667 C 95.838 229.667,95.351 230.154,94.812 230.750 M199.091 233.333 C 199.091 234.158,199.156 234.496,199.235 234.083 C 199.315 233.671,199.315 232.996,199.235 232.583 C 199.156 232.171,199.091 232.508,199.091 233.333 M123.125 234.156 C 123.022 234.425,123.014 234.837,123.109 235.072 C 123.203 235.308,123.293 235.171,123.307 234.768 C 123.330 234.140,123.557 234.019,124.917 233.912 L 126.500 233.787 124.906 233.727 C 123.771 233.684,123.258 233.807,123.125 234.156 M305.333 243.500 C 303.968 244.875,302.925 246.000,303.017 246.000 C 303.108 246.000,304.301 244.875,305.667 243.500 C 307.032 242.125,308.075 241.000,307.983 241.000 C 307.892 241.000,306.699 242.125,305.333 243.500 M107.750 242.915 C 109.354 242.976,111.979 242.976,113.583 242.915 C 115.188 242.854,113.875 242.804,110.667 242.804 C 107.458 242.804,106.146 242.854,107.750 242.915 M84.100 245.000 C 84.100 246.008,84.162 246.421,84.239 245.917 C 84.315 245.412,84.315 244.588,84.239 244.083 C 84.162 243.579,84.100 243.992,84.100 245.000 M89.744 245.000 C 89.744 245.642,89.813 245.904,89.896 245.583 C 89.980 245.262,89.980 244.737,89.896 244.417 C 89.813 244.096,89.744 244.358,89.744 245.000 M157.077 247.000 C 157.077 247.642,157.146 247.904,157.230 247.583 C 157.314 247.262,157.314 246.737,157.230 246.417 C 157.146 246.096,157.077 246.358,157.077 247.000 M106.583 247.244 C 107.362 247.314,108.638 247.314,109.417 247.244 C 110.196 247.174,109.558 247.116,108.000 247.116 C 106.442 247.116,105.804 247.174,106.583 247.244 M241.424 250.667 C 241.424 251.492,241.489 251.829,241.569 251.417 C 241.648 251.004,241.648 250.329,241.569 249.917 C 241.489 249.504,241.424 249.842,241.424 250.667 M224.744 255.333 C 224.744 255.975,224.813 256.237,224.896 255.917 C 224.980 255.596,224.980 255.071,224.896 254.750 C 224.813 254.429,224.744 254.692,224.744 255.333 M88.000 257.104 C 88.000 257.162,88.487 257.649,89.083 258.188 L 90.167 259.167 89.188 258.083 C 88.275 257.074,88.000 256.847,88.000 257.104 M255.649 258.583 L 254.500 259.833 255.750 258.685 C 256.913 257.615,257.153 257.333,256.899 257.333 C 256.843 257.333,256.281 257.896,255.649 258.583 M147.921 258.236 C 148.335 258.315,148.935 258.312,149.254 258.229 C 149.573 258.146,149.233 258.080,148.500 258.084 C 147.767 258.088,147.506 258.156,147.921 258.236 M176.750 258.230 C 177.071 258.314,177.596 258.314,177.917 258.230 C 178.237 258.146,177.975 258.077,177.333 258.077 C 176.692 258.077,176.429 258.146,176.750 258.230 M246.587 258.236 C 247.002 258.315,247.602 258.312,247.921 258.229 C 248.239 258.146,247.900 258.080,247.167 258.084 C 246.433 258.088,246.173 258.156,246.587 258.236 M275.083 258.230 C 275.404 258.314,275.929 258.314,276.250 258.230 C 276.571 258.146,276.308 258.077,275.667 258.077 C 275.025 258.077,274.762 258.146,275.083 258.230 " stroke="none" fill="#545454" fill-rule="evenodd"></path><path id="path3" d="M229.096 234.580 C 230.156 234.646,231.806 234.646,232.762 234.579 C 233.718 234.512,232.850 234.457,230.833 234.458 C 228.817 234.459,228.035 234.514,229.096 234.580 M166.095 250.500 C 166.098 251.417,166.163 251.752,166.239 251.245 C 166.316 250.739,166.314 249.989,166.235 249.579 C 166.156 249.169,166.093 249.583,166.095 250.500 " stroke="none" fill="#7c7c7c" fill-rule="evenodd"></path><path id="path4" d="M205.583 226.569 C 205.996 226.648,206.671 226.648,207.083 226.569 C 207.496 226.489,207.158 226.424,206.333 226.424 C 205.508 226.424,205.171 226.489,205.583 226.569 M302.322 240.917 L 300.500 242.833 302.417 241.011 C 304.197 239.319,304.486 239.000,304.239 239.000 C 304.187 239.000,303.324 239.862,302.322 240.917 M269.773 250.667 C 269.773 251.858,269.834 252.346,269.908 251.750 C 269.982 251.154,269.982 250.179,269.908 249.583 C 269.834 248.987,269.773 249.475,269.773 250.667 M142.767 250.667 C 142.767 251.675,142.829 252.088,142.905 251.583 C 142.982 251.079,142.982 250.254,142.905 249.750 C 142.829 249.246,142.767 249.658,142.767 250.667 M209.077 250.000 C 209.077 250.642,209.146 250.904,209.230 250.583 C 209.314 250.262,209.314 249.737,209.230 249.417 C 209.146 249.096,209.077 249.358,209.077 250.000 M121.259 261.911 C 122.043 261.982,123.243 261.981,123.925 261.909 C 124.608 261.837,123.967 261.780,122.500 261.781 C 121.033 261.782,120.475 261.841,121.259 261.911 M290.925 261.911 C 291.709 261.982,292.909 261.981,293.592 261.909 C 294.275 261.837,293.633 261.780,292.167 261.781 C 290.700 261.782,290.141 261.841,290.925 261.911 M307.917 261.911 C 308.696 261.981,309.971 261.981,310.750 261.911 C 311.529 261.841,310.892 261.783,309.333 261.783 C 307.775 261.783,307.137 261.841,307.917 261.911 " stroke="none" fill="#848484" fill-rule="evenodd"></path></g></svg>